<svg xmlns="http://www.w3.org/2000/svg" viewBox="0 0 48 48" width="48" height="48"><path d="M24 0a23.915 23.915 0 0 1 16.969 7.031A23.925 23.925 0 0 1 48 24a23.915 23.915 0 0 1-7.031 16.969A23.925 23.925 0 0 1 24 48a23.915 23.915 0 0 1-16.969-7.031A23.915 23.915 0 0 1 0 24 23.915 23.915 0 0 1 7.031 7.031 23.915 23.915 0 0 1 24 0zm-7.477 15.418h5.309v17.168h-5.309V15.418zm9.645 0h5.309v17.168h-5.309V15.418zm11.887-5.473A19.81 19.81 0 0 0 24 4.125a19.826 19.826 0 0 0-14.055 5.82C6.347 13.543 4.125 18.511 4.125 24s2.227 10.461 5.82 14.055A19.81 19.81 0 0 0 24 43.875a19.826 19.826 0 0 0 14.055-5.82c3.598-3.598 5.82-8.566 5.82-14.055s-2.223-10.461-5.82-14.055z" fill="#323238"/></svg>